<?xml version="1.0" encoding="utf-8"?>
<!-- Generator: Adobe Illustrator 27.5.0, SVG Export Plug-In . SVG Version: 6.00 Build 0)  -->
<svg version="1.1" xmlns="http://www.w3.org/2000/svg" xmlns:xlink="http://www.w3.org/1999/xlink" x="0px" y="0px"
	 viewBox="0 0 500 500" style="enable-background:new 0 0 500 500;" xml:space="preserve">
<g id="BACKGROUND">
	<rect y="0.001" style="fill-rule:evenodd;clip-rule:evenodd;fill:#FFFFFF;" width="500" height="500"/>
</g>
<g id="OBJECTS">
	<g>
		
			<ellipse transform="matrix(0.7071 -0.7071 0.7071 0.7071 -103.5534 249.9998)" style="fill-rule:evenodd;clip-rule:evenodd;fill:#EDF5F2;" cx="250" cy="250" rx="175.782" ry="175.782"/>
		
			<ellipse transform="matrix(0.3802 -0.9249 0.9249 0.3802 -78.1176 383.369)" style="fill-rule:evenodd;clip-rule:evenodd;fill:#A0CDBC;" cx="246.976" cy="249.969" rx="107.997" ry="107.996"/>
		<g>
			<path style="fill-rule:evenodd;clip-rule:evenodd;fill:#413B73;" d="M136.296,418.432c-4.296-6.454-9.247-13.702-10.207-14.547
				c-1.628-1.429-3.719-2.324-6.696-2.324H97.696c-2.334,0-4.03-0.489-5.417-1.991l-0.098-0.098
				c-1.575-1.764-2.952-4.837-4.513-9.815l-0.136-0.438c-1.528-4.877-3.056-9.756-4.586-14.632h-4.175
				c1.654,5.272,3.306,10.544,4.958,15.816l0.137,0.435c1.732,5.535,3.368,9.065,5.376,11.302l0.107,0.126
				c0.964,1.044,1.982,1.792,3.098,2.306v21.731c0,4.022,0.068,8.057,0.811,11.201c0.913,3.854,2.783,6.428,6.474,6.428
				c6.083,0,8.82-9.103,9.214-10.537l0.058-0.191l10.222-27.653h0.166c1.887,0,3.147,0.511,4.078,1.329
				c0.586,0.514,4.331,6,8.043,11.553H136.296L136.296,418.432z M96.438,405.51c0.407,0.028,0.826,0.04,1.259,0.04h17.416
				l-9.972,26.674l-0.032,0.152c-0.296,1.086-2.186,7.566-5.375,7.566c-1.344,0-2.119-1.336-2.592-3.344
				c-0.643-2.718-0.704-6.501-0.704-10.296V405.51z"/>
			<path style="fill-rule:evenodd;clip-rule:evenodd;fill:#413B73;" d="M88.778,374.587c-1.975-6.295-3.952-12.587-5.934-18.875
				c-0.972-3.085-2.092-5.782-3.53-7.867c-1.591-2.311-3.558-3.87-6.099-4.405c-2.001-0.422-4.271-0.318-6.426-0.222
				c-0.781,0.033-1.546,0.067-2.432,0.067c-1.101,0-1.994,0.892-1.994,1.995c0,1.101,0.893,1.996,1.994,1.996
				c0.703,0,1.642-0.042,2.604-0.087c1.908-0.084,3.917-0.173,5.442,0.147c1.435,0.301,2.617,1.286,3.638,2.767
				c1.175,1.708,2.136,4.051,3,6.792c1.858,5.896,3.71,11.792,5.561,17.691H88.778z"/>
			<g>
				<path style="fill-rule:evenodd;clip-rule:evenodd;fill:#30295E;" d="M126.953,422.219c-1.235,2.498-1.978,5.68-1.978,9.147
					c0,3.467,0.742,6.648,1.978,9.144v5.365h6.862c4.881,0,8.838-6.495,8.838-14.509c0-8.016-3.957-14.512-8.838-14.512h-6.862
					V422.219z"/>
				<path style="fill-rule:evenodd;clip-rule:evenodd;fill:#413B73;" d="M126.953,445.875c4.869,0,8.838-6.518,8.838-14.509
					c0-7.992-3.97-14.512-8.838-14.512c-4.868,0-8.838,6.52-8.838,14.512C118.115,439.358,122.085,445.875,126.953,445.875z"/>
				<path style="fill-rule:evenodd;clip-rule:evenodd;fill:#FFFFFF;" d="M126.953,438.823c2.501,0,4.543-3.351,4.543-7.456
					c0-4.108-2.041-7.457-4.543-7.457c-2.502,0-4.541,3.349-4.541,7.457C122.412,435.472,124.451,438.823,126.953,438.823z"/>
			</g>
			<path style="fill-rule:evenodd;clip-rule:evenodd;fill:#875371;" d="M124.289,430.461c0.485,0.985,1.68,1.39,2.665,0.905
				c0.986-0.487,1.391-1.681,0.904-2.667c-0.538-1.098-15.153-23.3-16.877-24.814c-1.629-1.429-3.719-2.324-6.695-2.324H82.588
				c-2.336,0-4.031-0.489-5.417-1.991l-0.098-0.098c-1.575-1.764-2.953-4.837-4.512-9.815l-0.136-0.438
				c-3.502-11.175-7.002-22.347-10.521-33.507c-0.972-3.085-2.092-5.782-3.528-7.867c-1.592-2.311-3.559-3.87-6.1-4.405
				c-2.002-0.422-4.271-0.318-6.425-0.222c-0.782,0.033-1.547,0.067-2.433,0.067c-1.101,0-1.995,0.892-1.995,1.995
				c0,1.101,0.895,1.996,1.995,1.996c0.704,0,1.643-0.042,2.604-0.087c1.908-0.084,3.917-0.173,5.443,0.147
				c1.435,0.301,2.617,1.286,3.638,2.767c1.174,1.708,2.135,4.051,2.999,6.792c3.519,11.158,7.02,22.333,10.521,33.508l0.137,0.435
				c1.733,5.535,3.367,9.065,5.376,11.302l0.106,0.126c0.964,1.044,1.982,1.792,3.099,2.308v21.729
				c0,4.022,0.069,8.057,0.813,11.201c0.911,3.854,2.782,6.428,6.473,6.428c6.083,0,8.82-9.103,9.214-10.537l0.058-0.191
				l10.222-27.653h0.166c1.887,0,3.146,0.511,4.078,1.329C109.559,407.928,123.896,429.664,124.289,430.461L124.289,430.461z
				 M81.329,405.51c0.408,0.028,0.826,0.04,1.259,0.04h17.415l-9.971,26.671L90,432.376c-0.295,1.086-2.185,7.566-5.375,7.566
				c-1.343,0-2.119-1.336-2.593-3.344c-0.642-2.721-0.703-6.501-0.703-10.296V405.51z"/>
			<g>
				<path style="fill-rule:evenodd;clip-rule:evenodd;fill:#875371;" d="M128.806,401.572l-34.499-0.045
					c-1.318-0.001-3.022-1.073-3.781-2.395l-13.975-24.35c-0.757-1.317-0.306-2.4,1.009-2.395l67.992,0.241
					c1.315,0.004,1.771,1.081,1.009,2.395l-13.975,24.153C131.825,400.492,130.123,401.573,128.806,401.572z"/>
				<path style="fill-rule:evenodd;clip-rule:evenodd;fill:#D08174;" d="M148.67,368.409h-35.596c-1.699,0-3.09,1.389-3.09,3.088
					l0,0c0,1.699,1.391,3.092,3.09,3.092h35.596c1.699,0,3.089-1.393,3.089-3.092l0,0
					C151.759,369.797,150.369,368.409,148.67,368.409z"/>
				<path style="fill-rule:evenodd;clip-rule:evenodd;fill:#D08174;" d="M104.285,401.572l-26.862-0.045
					c-1.316-0.001-3.427-0.915-3.779-2.395l-5.795-24.35c-0.353-1.479-0.305-2.4,1.008-2.395l52.173,0.241
					c1.314,0.008,1.771,1.081,1.01,2.395l-13.976,24.153C107.305,400.492,105.603,401.573,104.285,401.572z"/>
				<path style="fill-rule:evenodd;clip-rule:evenodd;fill:#ECBD78;" d="M124.865,368.407H67.219c-1.698,0-3.089,1.391-3.089,3.09
					l0,0c0,1.699,1.392,3.091,3.089,3.091h57.646c1.699,0,3.091-1.389,3.091-3.091l0,0
					C127.956,369.797,126.564,368.407,124.865,368.407z"/>
			</g>
		</g>
		<g>
			<path style="fill-rule:evenodd;clip-rule:evenodd;fill:#D08174;" d="M211.944,124.66l8.14-32.719c0,0,1.116-3.752,5.426-5.587
				c4.31-1.836,24.182-3.991,24.182-3.991s5.109-0.798,8.299,2.236c3.193,3.032,14.127,22.744,14.127,22.744L211.944,124.66z"/>
			<path style="fill-rule:evenodd;clip-rule:evenodd;fill:#875371;" d="M211.944,124.66l4.329-17.399
				c6.114-2.711,13.066-5.097,20.573-6.949c10.385-2.563,20.406-3.753,29.113-3.7c3.253,5.492,6.159,10.731,6.159,10.731
				L211.944,124.66z"/>
			<path style="fill-rule:evenodd;clip-rule:evenodd;fill:#BE7775;" d="M236.637,106.005c37.396-9.229,71.161-4.855,75.413,9.768
				c4.254,14.622-22.612,33.957-60.007,43.187c-37.396,9.228-71.16,4.853-75.414-9.769
				C172.375,134.567,199.242,115.233,236.637,106.005z"/>
			<path style="fill-rule:evenodd;clip-rule:evenodd;fill:#875371;" d="M242.678,161.001c-17.09,3.25-32.912,3.596-44.832,1.377
				l18.551-33.998l5.455,4.203L242.678,161.001z"/>
			<path style="fill-rule:evenodd;clip-rule:evenodd;fill:#30295E;" d="M222.184,153.245c0,0,0,2.127,0,4.101
				c0,1.974-1.533,4.177-2.798,4.177v-4.481c0,0-0.536-3.305-3.948-3.305c-1.334-1.833-2.474-3.807-3.428-5.876h0.289v-5.379
				c0-14.554,11.906-26.46,26.458-26.46h14.974c14.552,0,26.46,11.906,26.46,26.46v5.379h0.65c-2.261,3.348-4.326,5.876-4.326,5.876
				c-3.411,0-3.947,3.305-3.947,3.305v4.481c-1.266,0-2.799-2.203-2.799-4.177c0-1.974,0-4.101,0-4.101s-2.972-5.636-2.972-11.56
				h-7.101c-0.686,0-1.354-0.885-1.505-1.751c-0.152-0.866-0.611-6.607-0.763-7.974c-0.151-1.366-0.532-2.051-0.763-1.687
				c-0.227,0.365-0.381,5.105-0.761,8.157c-0.375,3.006-2.079,3.249-2.132,3.255l0,0h-29.821
				C223.952,141.686,223.714,148.903,222.184,153.245z"/>
			<path style="fill-rule:evenodd;clip-rule:evenodd;fill:#30295E;" d="M215.531,149.124c0,0-0.865,15.467-6.434,25.399
				c0,0-1.803,2.37,0.059,4.558c1.861,2.189,13.731,11.892,34.391,14.719c20.66,2.828,40.82-13.979,41.35-16.183
				c0.528-2.203-6.328-17.953-5.791-31.349L215.531,149.124z"/>
			<rect x="234.061" y="171.663" style="fill-rule:evenodd;clip-rule:evenodd;fill:#E9BAA8;" width="25.831" height="27.65"/>
			<path style="fill-rule:evenodd;clip-rule:evenodd;fill:#D58881;" d="M234.061,185.289v-13.626c0,0,17.239,1.546,25.831,2.363
				v18.607l-0.75,0.582L234.061,185.289z"/>
			<path style="fill-rule:evenodd;clip-rule:evenodd;fill:#875371;" d="M294.036,199.38c7.021,3.122,8.775,5.071,18.917,26.525
				c10.143,21.453,17.553,40.177,17.553,40.177s5.169,2.242,6.144,4.68c0.976,2.439,0.196,7.802,0.196,7.802
				s6.436,7.802,4.486,16.968c-1.952,9.167-10.046,19.893-12.484,21.162c-2.438,1.267-8.972,0-8.972,0s-27.397-15.315-33.638-31.697
				C279.995,268.615,275.315,211.275,294.036,199.38z"/>
			<path style="fill-rule:evenodd;clip-rule:evenodd;fill:#875371;" d="M199.917,199.38c-7.021,3.122-8.777,5.071-18.919,26.525
				c-10.142,21.453-17.552,40.177-17.552,40.177s-5.167,2.242-6.143,4.68c-0.975,2.439-0.195,7.802-0.195,7.802
				s-6.436,7.802-4.485,16.968c1.949,9.167,10.044,19.893,12.481,21.162c2.438,1.267,8.972,0,8.972,0s27.399-15.315,33.639-31.697
				C213.957,268.615,218.638,211.275,199.917,199.38z"/>
			<path style="fill-rule:evenodd;clip-rule:evenodd;fill:#413B73;" d="M259.915,190.401l34.121,8.98c0,0-9.749,23.792-2.728,44.466
				c0,0,2.924,14.43,1.365,25.55c-0.929,6.6,0.279,25.581,1.819,41.994H199.46c1.541-16.413,2.746-35.395,1.819-41.994
				c-1.56-11.12,1.365-25.55,1.365-25.55c7.021-20.673-2.728-44.466-2.728-44.466l34.119-9.045c0.007,3.381,5.799,6.124,12.94,6.124
				C254.072,196.46,259.831,193.753,259.915,190.401z"/>
			<path style="fill-rule:evenodd;clip-rule:evenodd;fill:#30295E;" d="M289.314,235.335c0.401,2.85,1.044,5.709,1.994,8.511
				c0,0,0.117,0.574,0.291,1.58l-9.155,4.423l-5.581-12.105l1.976-9.063L289.314,235.335z"/>
			<path style="fill-rule:evenodd;clip-rule:evenodd;fill:#D08174;" d="M294.493,311.39c1.053,11.227,2.264,21.251,3.056,25.291
				c0.626,3.19,0.789,5.959,0.633,8.392c-15.236,8.223-32.675,12.893-51.206,12.893c-18.53,0-35.968-4.67-51.206-12.893
				c-0.156-2.433,0.008-5.201,0.633-8.392c0.793-4.04,2.003-14.065,3.057-25.291H294.493z"/>
			<path style="fill-rule:evenodd;clip-rule:evenodd;fill:#D58881;" d="M217.144,145.994c-0.203,0.028-0.401,0.061-0.598,0.102
				l-0.007,0.001h0.001c-3.636,0.762-6.399,3.952-6.473,7.824c-0.086,4.503,3.497,8.221,7.997,8.308
				c4.503,0.084,8.222-3.497,8.307-7.998c0.051-2.617-1.139-4.969-3.026-6.495c0.208,2.406-0.175,5.386-3.248,5.685l0.089-4.701
				C220.224,146.817,218.45,145.943,217.144,145.994z"/>
			<path style="fill-rule:evenodd;clip-rule:evenodd;fill:#D58881;" d="M275.989,145.994c0.202,0.028,0.4,0.061,0.599,0.102
				l0.004,0.001l0,0c3.637,0.762,6.4,3.952,6.473,7.824c0.086,4.503-3.497,8.221-7.997,8.308c-4.503,0.084-8.222-3.497-8.306-7.998
				c-0.051-2.617,1.137-4.969,3.025-6.495c-0.208,2.406,0.175,5.386,3.248,5.685l-0.091-4.701
				C272.908,146.817,274.684,145.943,275.989,145.994z"/>
			<path style="fill-rule:evenodd;clip-rule:evenodd;fill:#E9BAA8;" d="M220.409,123.462c-1.134,3.03-1.757,6.305-1.757,9.719v25.39
				c0,15.353,12.562,27.914,27.916,27.914l0,0c15.349,0,27.913-12.561,27.913-27.914v-25.39c0-3.031-0.491-5.954-1.397-8.692
				c-4.84-5.201-11.734-8.467-19.354-8.467h-14.974C231.65,116.021,225.176,118.863,220.409,123.462z"/>
			<path style="fill-rule:evenodd;clip-rule:evenodd;fill:#DC9C8D;" d="M226.92,118.836l5.155,9.04l41.52,13.273
				c0,0,0.418-1.949,0.887-4.582v-3.386c0-3.031-0.491-5.952-1.396-8.691c-4.841-5.201-11.734-8.469-19.355-8.469h-14.974
				C234.509,116.021,230.488,117.038,226.92,118.836z"/>
			<path style="fill-rule:evenodd;clip-rule:evenodd;fill:#30295E;" d="M239.286,165.962c-0.038,3.99,3.169,7.252,7.157,7.288
				c3.991,0.036,7.254-3.169,7.29-7.158h-0.013c0.007-0.686-0.55-1.252-1.236-1.258l-11.928-0.107
				c-0.686-0.007-1.252,0.549-1.258,1.235H239.286z"/>
			<path style="fill-rule:evenodd;clip-rule:evenodd;fill:#C35A5A;" d="M241.926,171.609c1.23,1.012,2.801,1.625,4.518,1.641
				c1.402,0.013,2.714-0.376,3.828-1.056c-0.542-1.488-2.153-2.612-4.106-2.703C244.302,169.405,242.66,170.285,241.926,171.609z"/>
			<path style="fill-rule:evenodd;clip-rule:evenodd;fill:#FFFFFF;" d="M252.643,164.847l-11.21-0.102
				c-0.189,1.236,0.373,2.495,1.204,2.776c1.013,0.339,9.127,0.202,9.708-0.431C252.624,166.784,252.669,165.79,252.643,164.847z"/>
			<path style="fill-rule:evenodd;clip-rule:evenodd;fill:#30295E;" d="M232.715,148.992L232.715,148.992
				c1.115,0,2.028,0.911,2.028,2.027v2.645c0,1.115-0.913,2.027-2.027,2.027h-0.001c-1.115,0-2.027-0.912-2.027-2.027v-2.645
				C230.688,149.903,231.6,148.992,232.715,148.992z"/>
			<path style="fill-rule:evenodd;clip-rule:evenodd;fill:#30295E;" d="M261.475,148.992L261.475,148.992
				c1.116,0,2.027,0.911,2.027,2.027v2.645c0,1.115-0.911,2.027-2.027,2.027l0,0c-1.114,0-2.027-0.912-2.027-2.027v-2.645
				C259.447,149.903,260.36,148.992,261.475,148.992z"/>
			<path style="fill-rule:evenodd;clip-rule:evenodd;fill:#F1D3C8;" d="M245.003,156.469c-0.56,0.887-1.313,2.145-1.627,2.96
				c-0.914,2.402,3.687,3.892,3.942,1.369c0.091-0.9-0.147-2.153-0.468-3.235C245.993,154.663,245.939,154.99,245.003,156.469z"/>
			<g>
				<g>
					<path style="fill-rule:evenodd;clip-rule:evenodd;fill:#D58881;" d="M263.107,159.947c-2.113-0.04-3.861,1.642-3.901,3.756
						c-0.04,2.114,1.641,3.863,3.756,3.903c2.114,0.039,3.861-1.642,3.902-3.756C266.903,161.734,265.221,159.987,263.107,159.947z"
						/>
					<path style="fill-rule:evenodd;clip-rule:evenodd;fill:#D58881;" d="M230.17,159.323c-2.113-0.042-3.861,1.641-3.901,3.754
						c-0.04,2.116,1.641,3.862,3.757,3.902c2.115,0.041,3.861-1.641,3.901-3.756C233.967,161.109,232.285,159.361,230.17,159.323z"
						/>
				</g>
				<g>
					<path style="fill-rule:evenodd;clip-rule:evenodd;fill:#30295E;" d="M229.283,145.055c-0.488,0.246-1.084,0.048-1.328-0.441
						c-0.244-0.489-0.046-1.085,0.44-1.328c2.558-1.319,5.979-1.471,8.489,0.034c0.467,0.279,0.621,0.892,0.341,1.36
						c-0.28,0.466-0.892,0.622-1.36,0.34C233.85,143.811,231.325,144.08,229.283,145.055z"/>
					<path style="fill-rule:evenodd;clip-rule:evenodd;fill:#30295E;" d="M263.853,145.058c-2.045-0.978-4.568-1.247-6.585-0.038
						c-0.468,0.281-1.079,0.126-1.36-0.34c-0.278-0.468-0.125-1.081,0.341-1.36c2.51-1.505,5.931-1.354,8.487-0.036
						c0.487,0.245,0.686,0.84,0.442,1.33C264.932,145.103,264.338,145.3,263.853,145.058z"/>
				</g>
				<path style="fill-rule:evenodd;clip-rule:evenodd;fill:#30295E;" d="M232.212,148.924L232.212,148.924
					c-0.563,0-1.082,0.203-1.486,0.538c-0.174-0.043-0.467-0.162-0.631-0.479c-0.095-0.182-0.319-0.253-0.501-0.159
					c-0.183,0.094-0.254,0.318-0.16,0.5c0.192,0.373,0.488,0.593,0.756,0.724l-0.018,0.021c-0.313-0.073-0.681-0.237-0.972-0.596
					c-0.13-0.158-0.365-0.184-0.524-0.054c-0.158,0.131-0.182,0.365-0.053,0.524c0.328,0.401,0.724,0.63,1.098,0.761l-0.004,0.006
					c-0.353-0.021-0.741-0.117-1.118-0.359c-0.174-0.11-0.405-0.059-0.516,0.115c-0.109,0.175-0.057,0.404,0.116,0.515
					c0.388,0.248,0.783,0.38,1.156,0.439l0.519,0.073v2.825c0,1.286,1.052,2.339,2.338,2.339l0,0c1.288,0,2.34-1.053,2.34-2.339
					v-3.052C234.552,149.977,233.5,148.924,232.212,148.924z"/>
				<path style="fill-rule:evenodd;clip-rule:evenodd;fill:#30295E;" d="M260.921,148.924L260.921,148.924
					c0.564,0,1.082,0.203,1.487,0.538c0.173-0.043,0.467-0.162,0.629-0.479c0.095-0.182,0.319-0.253,0.503-0.159
					c0.183,0.094,0.254,0.318,0.16,0.5c-0.191,0.373-0.487,0.593-0.76,0.724l0.021,0.021c0.314-0.073,0.681-0.237,0.972-0.596
					c0.129-0.158,0.364-0.184,0.523-0.054c0.159,0.131,0.184,0.365,0.054,0.524c-0.327,0.401-0.723,0.63-1.097,0.761l0.005,0.006
					c0.352-0.021,0.738-0.117,1.117-0.359c0.174-0.11,0.404-0.059,0.515,0.115c0.11,0.175,0.06,0.404-0.116,0.515
					c-0.388,0.248-0.783,0.38-1.154,0.439l-0.521,0.073v2.825c0,1.286-1.051,2.339-2.337,2.339l0,0
					c-1.289,0-2.341-1.053-2.341-2.339v-3.052C258.58,149.977,259.632,148.924,260.921,148.924z"/>
			</g>
			<path style="fill-rule:evenodd;clip-rule:evenodd;fill:#D08174;" d="M246.976,227.954c0,0,26.053,0,29.002,0
				c2.951,0,9.078,3.177,9.983,12.592c0.908,9.416,7.805,62.575,7.805,62.575h-46.791h-46.789c0,0,6.896-53.159,7.803-62.575
				c0.907-9.415,7.034-12.592,9.984-12.592C220.922,227.954,246.976,227.954,246.976,227.954z"/>
			<path style="fill-rule:evenodd;clip-rule:evenodd;fill:#D08174;" d="M276.671,232.157c-0.378,2.45-2.674,4.129-5.122,3.749
				c-2.448-0.378-4.128-2.673-3.751-5.123c1.067-6.899,2.398-13.902,3.91-20.713c0.631-2.845,1.309-5.688,2.084-8.499
				c0.653-2.368,1.377-4.787,2.299-7.065c0.244-0.604,0.892-0.928,1.52-0.764l6.256,1.641c0.38,0.099,0.669,0.34,0.836,0.695
				c0.167,0.357,0.17,0.731,0.005,1.09c-0.963,2.077-1.673,4.505-2.282,6.711c-0.824,2.984-1.527,6.013-2.18,9.039
				C278.877,219.254,277.663,225.748,276.671,232.157z"/>
			<path style="fill-rule:evenodd;clip-rule:evenodd;fill:#30295E;" d="M272.235,229.882c0.877,0,1.588,0.711,1.588,1.588
				c0,0.878-0.711,1.588-1.588,1.588c-0.877,0-1.589-0.71-1.589-1.588C270.646,230.593,271.358,229.882,272.235,229.882z"/>
			<path style="fill-rule:evenodd;clip-rule:evenodd;fill:#D08174;" d="M217.281,232.157c0.378,2.45,2.674,4.129,5.123,3.749
				c2.45-0.378,4.129-2.673,3.751-5.123c-1.067-6.899-2.398-13.902-3.909-20.713c-0.632-2.845-1.311-5.688-2.084-8.499
				c-0.653-2.368-1.38-4.787-2.301-7.065c-0.243-0.604-0.889-0.928-1.519-0.764l-6.254,1.641c-0.38,0.099-0.669,0.34-0.837,0.695
				c-0.167,0.357-0.169,0.731-0.003,1.09c0.962,2.077,1.672,4.505,2.281,6.711c0.824,2.984,1.527,6.013,2.181,9.039
				C215.075,219.254,216.291,225.748,217.281,232.157z"/>
			<path style="fill-rule:evenodd;clip-rule:evenodd;fill:#30295E;" d="M221.719,229.882c-0.877,0-1.589,0.711-1.589,1.588
				c0,0.878,0.712,1.588,1.589,1.588c0.876,0,1.587-0.71,1.587-1.588C223.306,230.593,222.595,229.882,221.719,229.882z"/>
			<g>
				
					<path style="fill-rule:evenodd;clip-rule:evenodd;fill:none;stroke:#663B55;stroke-width:1.4173;stroke-linecap:round;stroke-linejoin:round;stroke-miterlimit:2.6131;" d="
					M157.108,278.564c0,0,10.46-9.416,20.797-1.986"/>
				
					<path style="fill-rule:evenodd;clip-rule:evenodd;fill:none;stroke:#663B55;stroke-width:1.4173;stroke-linecap:round;stroke-linejoin:round;stroke-miterlimit:2.6131;" d="
					M163.446,266.082c0,0,15.967-10.069,21.35-16.96"/>
				
					<path style="fill-rule:evenodd;clip-rule:evenodd;fill:none;stroke:#663B55;stroke-width:1.4173;stroke-linecap:round;stroke-linejoin:round;stroke-miterlimit:2.6131;" d="
					M200.343,239.731c0,0-1.55-14.941-7.149-20.109"/>
				
					<path style="fill-rule:evenodd;clip-rule:evenodd;fill:none;stroke:#663B55;stroke-width:1.4173;stroke-linecap:round;stroke-linejoin:round;stroke-miterlimit:2.6131;" d="
					M293.011,239.45c0,0,3.977-15.091,10.65-21.768"/>
				
					<path style="fill-rule:evenodd;clip-rule:evenodd;fill:none;stroke:#663B55;stroke-width:1.4173;stroke-linecap:round;stroke-linejoin:round;stroke-miterlimit:2.6131;" d="
					M295.421,232.13c0,0,2.748-2.928,7.164-3.897"/>
				
					<path style="fill-rule:evenodd;clip-rule:evenodd;fill:none;stroke:#663B55;stroke-width:1.4173;stroke-linecap:round;stroke-linejoin:round;stroke-miterlimit:2.6131;" d="
					M330.506,266.082c0,0-10.801-6.627-18.982-19.33"/>
				
					<path style="fill-rule:evenodd;clip-rule:evenodd;fill:none;stroke:#30295E;stroke-width:1.4173;stroke-linecap:round;stroke-linejoin:round;stroke-miterlimit:2.6131;" d="
					M289.063,233.266c0,0-3.811-14.617-6.717-19.568"/>
				
					<path style="fill-rule:evenodd;clip-rule:evenodd;fill:none;stroke:#30295E;stroke-width:1.4173;stroke-linecap:round;stroke-linejoin:round;stroke-miterlimit:2.6131;" d="
					M204.46,236.516c0,0,3.917-12.376,4.457-13.021"/>
				
					<path style="fill-rule:evenodd;clip-rule:evenodd;fill:none;stroke:#663B55;stroke-width:1.4173;stroke-linecap:round;stroke-linejoin:round;stroke-miterlimit:2.6131;" d="
					M336.846,278.564c0,0-8.742-6.402-19.94-3.387"/>
			</g>
			<path style="fill-rule:evenodd;clip-rule:evenodd;fill:#FFFFFF;" d="M259.915,190.401c0,0-2.699,6.059-12.939,6.059
				c0,0,2.864,8.325,9.104,7.815c6.239-0.511,10.722-13.546,3.812-15.996L259.915,190.401z"/>
			<path style="fill-rule:evenodd;clip-rule:evenodd;fill:#FFFFFF;" d="M234.038,190.401c0,0,2.7,6.059,12.938,6.059
				c0,0-2.863,8.325-9.102,7.815c-6.24-0.511-10.723-13.546-3.813-15.996L234.038,190.401z"/>
			<path style="fill-rule:evenodd;clip-rule:evenodd;fill:#30295E;" d="M280.052,139.784h-1.123c-0.099,4.115-0.348,7.01-0.348,7.01
				c-3.618-1.108-4.1,6.126-4.1,6.126c-4.394-1.354-3.729-13.986-3.729-13.986c-4.961-1.917-4.287-9.586-4.287-9.586
				c-3.832,4.962-10.487-1.24-10.487-1.24c-3.946,10.038-22.332-2.142-22.332-2.142s3.835,3.382,1.804,5.187
				c-2.03,1.805-6.653-2.82-6.653-2.82c-0.114,7.895-6.204,11.843-6.204,11.843c0,11.73-3.941,14.662-3.941,14.662
				c0.123-6.201-4.38-7.896-4.38-7.896s3.755-3.775,1.724-15.054c-0.142-0.787-0.23-1.586-0.27-2.392
				c4.557-8.027,13.188-13.475,23.03-13.475h14.974C267.373,116.021,278.69,126.485,280.052,139.784z"/>
			<path style="fill-rule:evenodd;clip-rule:evenodd;fill:#875371;" d="M294.418,310.575c0.909,9.816,1.947,18.813,2.737,23.832
				l-98.468-7.013l-0.613-2.698c0.367-3.16,0.743-6.695,1.108-10.412l13.61-5.408C212.792,308.875,275.08,309.988,294.418,310.575z"
				/>
			<g>
				<path style="fill-rule:evenodd;clip-rule:evenodd;fill:#789EAE;" d="M204.217,238.797L204.217,238.797
					c4.704,0,8.551,3.85,8.551,8.552v32.27c0,4.704-3.847,8.551-8.551,8.551l0,0c-4.706,0-8.554-3.847-8.554-8.551v-32.27
					C195.663,242.648,199.511,238.797,204.217,238.797z"/>
				<path style="fill-rule:evenodd;clip-rule:evenodd;fill:#A0CDBC;" d="M221.322,238.797L221.322,238.797
					c-4.705,0-8.554,3.85-8.554,8.552v32.27c0,4.704,3.849,8.551,8.554,8.551l0,0c4.703,0,8.552-3.847,8.552-8.551v-32.27
					C229.874,242.648,226.025,238.797,221.322,238.797z"/>
				<path style="fill-rule:evenodd;clip-rule:evenodd;fill:#6181A4;" d="M238.427,238.797L238.427,238.797
					c4.704,0,8.553,3.85,8.553,8.552v32.27c0,4.704-3.849,8.551-8.553,8.551l0,0c-4.704,0-8.553-3.847-8.553-8.551v-32.27
					C229.874,242.648,233.723,238.797,238.427,238.797z"/>
				<path style="fill-rule:evenodd;clip-rule:evenodd;fill:#839FD1;" d="M255.531,238.797L255.531,238.797
					c-4.704,0-8.551,3.85-8.551,8.552v32.27c0,4.704,3.848,8.551,8.551,8.551l0,0c4.705,0,8.553-3.847,8.553-8.551v-32.27
					C264.084,242.648,260.236,238.797,255.531,238.797z"/>
				<path style="fill-rule:evenodd;clip-rule:evenodd;fill:#789EAE;" d="M272.636,238.797L272.636,238.797
					c4.706,0,8.555,3.85,8.555,8.552v32.27c0,4.704-3.849,8.551-8.555,8.551l0,0c-4.702,0-8.552-3.847-8.552-8.551v-32.27
					C264.084,242.648,267.934,238.797,272.636,238.797z"/>
				<path style="fill-rule:evenodd;clip-rule:evenodd;fill:#A0CDBC;" d="M289.742,238.797L289.742,238.797
					c-4.703,0-8.552,3.85-8.552,8.552v32.27c0,4.704,3.849,8.551,8.552,8.551l0,0c4.705,0,8.555-3.847,8.555-8.551v-32.27
					C298.297,242.648,294.447,238.797,289.742,238.797z"/>
			</g>
			<g>
				<path style="fill-rule:evenodd;clip-rule:evenodd;fill:#789EAE;" d="M298.297,249.756L298.297,249.756
					c-4.705,0-8.555,3.85-8.555,8.553v32.269c0,4.703,3.85,8.553,8.555,8.553l0,0c4.703,0,8.551-3.85,8.551-8.553v-32.269
					C306.848,253.606,303,249.756,298.297,249.756z"/>
				<path style="fill-rule:evenodd;clip-rule:evenodd;fill:#A0CDBC;" d="M281.19,249.756L281.19,249.756
					c4.703,0,8.552,3.85,8.552,8.553v32.269c0,4.703-3.849,8.553-8.552,8.553l0,0c-4.705,0-8.555-3.85-8.555-8.553v-32.269
					C272.636,253.606,276.485,249.756,281.19,249.756z"/>
				<path style="fill-rule:evenodd;clip-rule:evenodd;fill:#6181A4;" d="M264.084,249.756L264.084,249.756
					c-4.703,0-8.551,3.85-8.551,8.553v32.269c0,4.703,3.848,8.553,8.551,8.553l0,0c4.705,0,8.552-3.85,8.552-8.553v-32.269
					C272.636,253.606,268.789,249.756,264.084,249.756z"/>
				<path style="fill-rule:evenodd;clip-rule:evenodd;fill:#839FD1;" d="M246.98,249.756L246.98,249.756
					c4.704,0,8.553,3.85,8.553,8.553v32.269c0,4.703-3.85,8.553-8.553,8.553l0,0c-4.704,0-8.553-3.85-8.553-8.553v-32.269
					C238.427,253.606,242.276,249.756,246.98,249.756z"/>
				<path style="fill-rule:evenodd;clip-rule:evenodd;fill:#789EAE;" d="M229.874,249.756L229.874,249.756
					c-4.704,0-8.552,3.85-8.552,8.553v32.269c0,4.703,3.848,8.553,8.552,8.553l0,0c4.704,0,8.553-3.85,8.553-8.553v-32.269
					C238.427,253.606,234.578,249.756,229.874,249.756z"/>
				<path style="fill-rule:evenodd;clip-rule:evenodd;fill:#A0CDBC;" d="M212.768,249.756L212.768,249.756
					c4.705,0,8.554,3.85,8.554,8.553v32.269c0,4.703-3.85,8.553-8.554,8.553l0,0c-4.704,0-8.551-3.85-8.551-8.553v-32.269
					C204.217,253.606,208.064,249.756,212.768,249.756z"/>
				<path style="fill-rule:evenodd;clip-rule:evenodd;fill:#789EAE;" d="M195.664,249.756L195.664,249.756
					c-4.705,0-8.553,3.85-8.553,8.553v32.269c0,4.703,3.848,8.553,8.553,8.553l0,0c4.704,0,8.553-3.85,8.553-8.553v-32.269
					C204.217,253.606,200.368,249.756,195.664,249.756z"/>
			</g>
			<path style="fill-rule:evenodd;clip-rule:evenodd;fill:#413B73;" d="M289.65,287.621h-85.34c-2.532-2.406-8.35-7.935-9.45-8.921
				c-1.414-1.268-3.999-1.316-3.999-1.316s-3.755,0-7.363,0c-3.608,0-3.315,2.827-3.315,2.827v11.527
				c-0.004,0.076-0.006,0.152-0.006,0.227v29.149c0,2.391,1.956,4.345,4.345,4.345h124.91c2.389,0,4.343-1.954,4.343-4.345v-23.351
				v-5.799v-11.754c0,0,0.294-2.827-3.313-2.827c-3.608,0-7.364,0-7.364,0s-2.584,0.049-3.997,1.316
				C298,279.686,292.181,285.214,289.65,287.621z"/>
			<path style="fill-rule:evenodd;clip-rule:evenodd;fill:#30295E;" d="M180.177,312.076v9.038c0,2.391,1.956,4.345,4.345,4.345
				h12.542l0.008-0.023l-9.582-14.084C184.367,311.149,181.983,311.445,180.177,312.076z"/>
			<path style="fill-rule:evenodd;clip-rule:evenodd;fill:#30295E;" d="M296.031,325.458h13.4c0.438,0,0.859-0.067,1.258-0.186
				c0.659-2.574,1.941-9.406,3.085-15.759v-9.991l-8.725,11.221l-2.895,8.118L296.031,325.458z"/>
			<path style="fill-rule:evenodd;clip-rule:evenodd;fill:#E9BAA8;" d="M315.616,302.491c-0.266,0.223-0.529,0.411-0.769,0.537
				c-1.073,0.561-4.341,2.024-6.167,3.146c-0.999,0.614-7.679,10.215-7.972,10.994c-0.292,0.782,1.645,2.559,3.364,1.513
				c2.242-1.366,5.852-4.195,5.852-4.195l-5.704,8.192c0,0-1.365,2.781-3.462,2.781c-2.097,0-4.244,0-6.68,0
				c-2.439,0-4.145,1.461-4.924,2.826c-0.781,1.363,0.683,1.853,2.779,1.853c2.096,0,3.996,0,3.996,0s-0.195,1.023,1.901,1.023
				c2.098,0,8.192,0,10.679,0c2.487,0,4.924-1.756,6.095-3.755c1.17-1.999,7.119-7.997,8.191-10.435
				c0.503-1.142,1.054-2.861,1.614-4.552l0.002-0.004l0.002-0.006l0.149-0.445C325.973,306.899,320.957,300.286,315.616,302.491z"/>
			<path style="fill-rule:evenodd;clip-rule:evenodd;fill:#E9BAA8;" d="M178.336,302.491c0.265,0.223,0.528,0.411,0.768,0.537
				c1.073,0.561,4.341,2.024,6.169,3.146c0.999,0.614,7.678,10.215,7.97,10.994c0.293,0.782-1.644,2.559-3.364,1.513
				c-2.243-1.366-5.852-4.195-5.852-4.195l5.706,8.192c0,0,1.364,2.781,3.461,2.781c2.097,0,4.243,0,6.681,0
				c2.437,0,4.144,1.461,4.923,2.826c0.781,1.363-0.682,1.853-2.778,1.853c-2.097,0-3.999,0-3.999,0s0.195,1.023-1.901,1.023
				c-2.096,0-8.191,0-10.678,0c-2.488,0-4.925-1.756-6.096-3.755c-1.169-1.999-7.118-7.997-8.191-10.435
				c-0.503-1.142-1.054-2.861-1.614-4.552l-0.003-0.004l0-0.006l-0.148-0.445C167.98,306.899,172.998,300.286,178.336,302.491z"/>
			
				<path style="fill-rule:evenodd;clip-rule:evenodd;fill:none;stroke:#30295E;stroke-width:0.7087;stroke-linecap:round;stroke-linejoin:round;stroke-miterlimit:2.6131;" d="
				M180.177,297.564c6.888,0,133.598,0,133.598,0"/>
			<path style="fill-rule:evenodd;clip-rule:evenodd;fill:#D08174;" d="M269.94,103.477c18.798,0.498,32.472,5.607,35.077,14.564
				c2.675,9.193-6.95,20.25-23.762,29.485c-0.205,0.112-0.41,0.225-0.615,0.335h0.2c-0.083,0.124-0.166,0.247-0.249,0.367
				c0.205,0.199,0.401,0.409,0.582,0.628c0.56-0.26,1.112-0.525,1.659-0.787c20.138-9.734,32.17-22.149,29.218-32.296
				c-2.974-10.226-20.381-15.44-43.37-14.494c-9.884,0.407-20.799,1.952-32.043,4.727c-5.32,1.313-10.427,2.831-15.261,4.509
				c2.677-0.799,5.423-1.549,8.227-2.241C244.098,104.697,258.044,103.163,269.94,103.477z"/>
			
				<path style="fill-rule:evenodd;clip-rule:evenodd;fill:none;stroke:#875371;stroke-width:1.4173;stroke-linecap:round;stroke-linejoin:round;stroke-miterlimit:2.6131;" d="
				M276.671,232.157c-0.378,2.45-2.674,4.129-5.122,3.749c-2.448-0.378-4.128-2.673-3.751-5.123
				c0.145-0.936,0.295-1.874,0.451-2.813"/>
			
				<path style="fill-rule:evenodd;clip-rule:evenodd;fill:none;stroke:#875371;stroke-width:1.4173;stroke-linecap:round;stroke-linejoin:round;stroke-miterlimit:2.6131;" d="
				M217.281,232.157c0.378,2.45,2.674,4.129,5.123,3.749c2.45-0.378,4.129-2.673,3.751-5.123"/>
		</g>
		<g>
			<path style="fill-rule:evenodd;clip-rule:evenodd;fill:#ECBD78;" d="M96.592,144.902c12.963,0,23.536-10.572,23.536-23.537
				c0-12.963-10.573-23.537-23.536-23.537c-12.964,0-23.537,10.574-23.537,23.537C73.055,134.33,83.627,144.902,96.592,144.902z"/>
			<g>
				<g>
					<path style="fill-rule:evenodd;clip-rule:evenodd;fill:#D08174;" d="M98.989,92.326c-0.1,1.237-1.135,2.209-2.397,2.209
						c-1.263,0-2.297-0.972-2.398-2.209l-1.16-9.216h0c-0.033-0.196-0.051-0.398-0.051-0.604c0-1.992,1.616-3.608,3.609-3.608
						c1.993,0,3.608,1.616,3.608,3.608c0,0.206-0.018,0.408-0.051,0.604l0,0L98.989,92.326z"/>
					<path style="fill-rule:evenodd;clip-rule:evenodd;fill:#D08174;" d="M98.989,150.407c-0.1-1.237-1.135-2.21-2.397-2.21
						c-1.263,0-2.297,0.973-2.398,2.21l-1.16,9.215h0c-0.033,0.196-0.051,0.399-0.051,0.604c0,1.993,1.616,3.609,3.609,3.609
						c1.993,0,3.608-1.616,3.608-3.609c0-0.205-0.018-0.408-0.051-0.604l0,0L98.989,150.407z"/>
				</g>
				<g>
					<path style="fill-rule:evenodd;clip-rule:evenodd;fill:#D08174;" d="M113.187,97.416c-0.704,1.019-2.088,1.345-3.18,0.714
						c-1.093-0.631-1.504-1.99-0.972-3.112l3.603-8.562h0.001c0.07-0.186,0.155-0.369,0.259-0.548
						c0.996-1.726,3.203-2.318,4.928-1.321c1.727,0.997,2.318,3.203,1.322,4.929c-0.104,0.179-0.22,0.345-0.347,0.499l0,0
						L113.187,97.416z"/>
					<path style="fill-rule:evenodd;clip-rule:evenodd;fill:#D08174;" d="M84.148,147.714c0.531-1.122,0.121-2.48-0.972-3.112
						c-1.093-0.631-2.476-0.305-3.181,0.714l-5.613,7.401l0,0c-0.126,0.154-0.243,0.319-0.346,0.497
						c-0.998,1.727-0.405,3.934,1.32,4.929c1.727,0.996,3.933,0.406,4.93-1.32c0.103-0.179,0.189-0.361,0.259-0.548l0,0
						L84.148,147.714z"/>
				</g>
				<g>
					<path style="fill-rule:evenodd;clip-rule:evenodd;fill:#D08174;" d="M122.939,108.922c-1.121,0.532-2.479,0.122-3.111-0.972
						c-0.631-1.092-0.307-2.475,0.714-3.18l7.4-5.614l0,0c0.154-0.126,0.32-0.241,0.499-0.346c1.725-0.997,3.933-0.404,4.929,1.321
						c0.997,1.726,0.405,3.933-1.32,4.93c-0.178,0.102-0.362,0.188-0.548,0.258l0,0L122.939,108.922z"/>
					<path style="fill-rule:evenodd;clip-rule:evenodd;fill:#D08174;" d="M72.641,137.962c1.021-0.704,1.345-2.088,0.714-3.181
						c-0.631-1.094-1.99-1.504-3.111-0.971l-8.562,3.602l0,0c-0.187,0.07-0.37,0.156-0.548,0.258
						c-1.727,0.997-2.318,3.205-1.321,4.93c0.997,1.727,3.204,2.317,4.931,1.321c0.178-0.104,0.344-0.219,0.497-0.346l0,0
						L72.641,137.962z"/>
				</g>
				<g>
					<path style="fill-rule:evenodd;clip-rule:evenodd;fill:#D08174;" d="M125.631,123.763c-1.236-0.1-2.209-1.135-2.209-2.397
						c0-1.262,0.973-2.298,2.209-2.398l9.217-1.161v0.001c0.195-0.033,0.398-0.051,0.604-0.051c1.994,0,3.609,1.616,3.609,3.609
						c0,1.993-1.615,3.608-3.609,3.608c-0.205,0-0.408-0.018-0.604-0.05l0,0L125.631,123.763z"/>
					<path style="fill-rule:evenodd;clip-rule:evenodd;fill:#D08174;" d="M67.552,123.763c1.236-0.1,2.208-1.135,2.208-2.397
						c0-1.262-0.972-2.298-2.208-2.398l-9.217-1.161v0.001c-0.196-0.033-0.398-0.051-0.603-0.051c-1.993,0-3.608,1.616-3.608,3.609
						c0,1.993,1.615,3.608,3.608,3.608c0.206,0,0.407-0.018,0.603-0.05l0,0L67.552,123.763z"/>
				</g>
				<g>
					<path style="fill-rule:evenodd;clip-rule:evenodd;fill:#D08174;" d="M120.542,137.962c-1.021-0.704-1.345-2.088-0.714-3.181
						c0.632-1.094,1.991-1.504,3.111-0.971l8.563,3.602l0,0c0.186,0.07,0.37,0.156,0.548,0.258c1.726,0.997,2.317,3.205,1.32,4.93
						c-0.996,1.726-3.203,2.317-4.929,1.321c-0.178-0.104-0.345-0.219-0.499-0.346l0,0L120.542,137.962z"/>
					<path style="fill-rule:evenodd;clip-rule:evenodd;fill:#D08174;" d="M70.243,108.922c1.121,0.532,2.48,0.122,3.111-0.972
						c0.632-1.092,0.307-2.475-0.714-3.181l-7.4-5.613h-0.002c-0.153-0.127-0.319-0.241-0.497-0.346
						c-1.727-0.997-3.934-0.404-4.931,1.321c-0.997,1.726-0.404,3.933,1.322,4.93c0.178,0.102,0.361,0.188,0.547,0.258l0,0
						L70.243,108.922z"/>
				</g>
				<g>
					<path style="fill-rule:evenodd;clip-rule:evenodd;fill:#D08174;" d="M109.035,147.714c-0.532-1.122-0.121-2.48,0.973-3.112
						c1.093-0.631,2.475-0.305,3.18,0.714l5.613,7.401l0,0c0.127,0.154,0.243,0.319,0.347,0.497c0.997,1.727,0.405,3.934-1.32,4.929
						c-1.727,0.996-3.934,0.406-4.93-1.32c-0.104-0.18-0.189-0.361-0.259-0.548l0,0L109.035,147.714z"/>
					<path style="fill-rule:evenodd;clip-rule:evenodd;fill:#D08174;" d="M79.996,97.416c0.704,1.019,2.087,1.345,3.18,0.714
						c1.093-0.631,1.503-1.99,0.972-3.112l-3.603-8.562l0,0c-0.07-0.186-0.156-0.369-0.259-0.549
						c-0.996-1.726-3.203-2.317-4.93-1.32c-1.726,0.997-2.317,3.203-1.32,4.929c0.103,0.179,0.219,0.345,0.346,0.499l0,0
						L79.996,97.416z"/>
				</g>
			</g>
		</g>
		<g>
			<path style="fill-rule:evenodd;clip-rule:evenodd;fill:#789EAE;" d="M403.354,115.014c-0.13-0.773-0.282-1.517-0.457-2.232
				c-0.179-0.727-0.381-1.421-0.604-2.082c-0.834-2.471-1.975-4.503-3.337-6.145c-1.478-1.775-3.216-3.093-5.115-4.019
				c-1.761-0.857-3.657-1.374-5.611-1.605c-2.096-0.247-4.258-0.163-6.385,0.188c-0.719,0.119-1.434,0.269-2.145,0.447
				c-0.722,0.181-1.433,0.391-2.132,0.627l0,0c-0.08,0.026-0.142,0.083-0.176,0.152c-0.034,0.07-0.043,0.151-0.016,0.231l0.008,0.02
				c0.097,0.271,2.18,6.085,6.389,10.776c4.257,4.745,10.685,8.347,19.416,3.97c0.065-0.032,0.11-0.083,0.141-0.141
				C403.356,115.144,403.366,115.078,403.354,115.014L403.354,115.014z"/>
			<path style="fill-rule:evenodd;clip-rule:evenodd;fill:#875371;" d="M386.079,137.368c1.926,0,3.761,0.387,5.434,1.089
				c1.516-1.728,3.738-2.819,6.216-2.819c1.249,0,2.434,0.279,3.497,0.775c2.338-5.357,7.682-9.101,13.9-9.101
				c8.371,0,15.159,6.788,15.159,15.162c0,0.296-0.008,0.591-0.025,0.884c0.323-0.039,0.649-0.058,0.983-0.058
				c4.568,0,8.272,3.702,8.272,8.27c0,0.561-0.057,1.111-0.164,1.641c0.146-0.011,0.296-0.016,0.445-0.016
				c3.387,0,6.13,2.744,6.13,6.129c0,3.385-2.743,6.13-6.13,6.13h-53.718c-7.757,0-14.045-6.287-14.045-14.044
				C372.034,143.656,378.322,137.368,386.079,137.368z"/>
			<path style="fill-rule:evenodd;clip-rule:evenodd;fill:#789EAE;" d="M415.17,101.744c-0.056-0.943-0.074-1.858-0.059-2.745
				c0.016-0.902,0.068-1.77,0.154-2.607c0.322-3.127,1.12-5.818,2.285-8.111c1.263-2.48,2.953-4.493,4.94-6.086
				c1.839-1.477,3.931-2.591,6.164-3.382c2.397-0.849,4.959-1.327,7.553-1.48c0.876-0.052,1.758-0.067,2.642-0.048
				c0.893,0.021,1.787,0.078,2.671,0.169l0,0c0.102,0.01,0.188,0.06,0.248,0.132c0.059,0.073,0.088,0.167,0.079,0.267l-0.003,0.026
				c-0.042,0.344-0.94,7.732-4.636,14.365c-3.74,6.712-10.329,12.657-21.76,9.841c-0.083-0.021-0.151-0.067-0.199-0.128
				c-0.048-0.06-0.075-0.135-0.077-0.213H415.17z"/>
			
				<path style="fill-rule:evenodd;clip-rule:evenodd;fill:none;stroke:#663B55;stroke-width:2.126;stroke-linecap:round;stroke-linejoin:round;stroke-miterlimit:2.6131;" d="
				M409.354,142.207c0,0,0-19.444,0-27.073c0-7.629,3.608-11.667,7.215-15.107"/>
			
				<path style="fill-rule:evenodd;clip-rule:evenodd;fill:none;stroke:#663B55;stroke-width:2.126;stroke-linecap:round;stroke-linejoin:round;stroke-miterlimit:2.6131;" d="
				M409.354,142.207c0,0,0-12.981,0-18.072c0-5.092-3.607-7.789-7.215-10.086"/>
			
				<path style="fill-rule:evenodd;clip-rule:evenodd;fill:none;stroke:#663B55;stroke-width:1.4173;stroke-linecap:round;stroke-linejoin:round;stroke-miterlimit:2.6131;" d="
				M438.655,160.646c0-6.666-5.405-12.07-12.07-12.07c-1.656,0-3.233,0.333-4.671,0.936c-1.302-1.484-3.214-2.422-5.345-2.422
				c-1.072,0-2.092,0.24-3.003,0.667c-2.011-4.605-6.603-7.822-11.946-7.822"/>
			
				<path style="fill-rule:evenodd;clip-rule:evenodd;fill:none;stroke:#663B55;stroke-width:1.4173;stroke-linecap:round;stroke-linejoin:round;stroke-miterlimit:2.6131;" d="
				M382.432,156.601c3.37-5.751,10.765-7.68,16.517-4.31c1.429,0.838,2.62,1.923,3.556,3.169c1.873-0.622,3.997-0.464,5.834,0.613
				c0.926,0.544,1.684,1.265,2.256,2.095"/>
		</g>
		<g>
			<g>
				<path style="fill-rule:evenodd;clip-rule:evenodd;fill:#663B55;" d="M413.841,394.166c5.262-12.254,9.416-26.941,6.559-39.049
					c-0.099-0.411-0.51-0.665-0.92-0.567c-0.41,0.097-0.664,0.508-0.566,0.918c3.049,12.912-2.162,28.945-8.02,41.585
					C412.003,396.383,412.955,395.384,413.841,394.166z"/>
				<path style="fill-rule:evenodd;clip-rule:evenodd;fill:#663B55;" d="M415.278,388.421"/>
				<path style="fill-rule:evenodd;clip-rule:evenodd;fill:#663B55;" d="M415.277,388.421"/>
				<path style="fill-rule:evenodd;clip-rule:evenodd;fill:#875371;" d="M415.277,388.421"/>
				<path style="fill-rule:evenodd;clip-rule:evenodd;fill:#663B55;" d="M419.678,372.577c-0.686-7.349-4.342-7.465-5.319-5.58
					C413.594,368.468,414.466,371.163,419.678,372.577z"/>
				<path style="fill-rule:evenodd;clip-rule:evenodd;fill:#663B55;" d="M419.678,372.577c5.92-2.521,5.916-5.518,4.435-6.479
					C422.563,365.088,419.398,366.296,419.678,372.577z"/>
				<path style="fill-rule:evenodd;clip-rule:evenodd;fill:#875371;" d="M419.678,372.577c4.851-6.626,1.982-9.465-0.24-8.702
					C417.655,364.487,416.292,367.42,419.678,372.577z"/>
				<path style="fill-rule:evenodd;clip-rule:evenodd;fill:#663B55;" d="M419.875,356.063c-2.922-6.072-6.065-5.631-6.789-3.906
					C412.394,353.8,413.896,356.607,419.875,356.063z"/>
				<path style="fill-rule:evenodd;clip-rule:evenodd;fill:#663B55;" d="M419.873,356.063c4.354-4.119,3.746-6.84,2.245-7.506
					C420.327,347.762,417.267,349.893,419.873,356.063z"/>
				<path style="fill-rule:evenodd;clip-rule:evenodd;fill:#875371;" d="M419.875,356.063c2.028-7.149-0.791-9.19-2.692-8.412
					C415.297,348.424,414.314,351.974,419.875,356.063z"/>
			</g>
			<g>
				<path style="fill-rule:evenodd;clip-rule:evenodd;fill:#663B55;" d="M420.188,398.186c7.034-11.332,13.335-25.234,12.315-37.633
					c-0.036-0.421-0.406-0.734-0.824-0.699c-0.42,0.035-0.732,0.404-0.697,0.824c1.087,13.224-6.461,28.299-14.138,39.92
					C418.04,400.102,419.131,399.258,420.188,398.186z"/>
				<path style="fill-rule:evenodd;clip-rule:evenodd;fill:#663B55;" d="M422.468,392.72"/>
				<path style="fill-rule:evenodd;clip-rule:evenodd;fill:#663B55;" d="M422.468,392.72c5.65-1.052,6.768-3.499,6.061-4.91
					C427.613,385.994,423.666,385.895,422.468,392.72z"/>
				<path style="fill-rule:evenodd;clip-rule:evenodd;fill:#875371;" d="M422.468,392.72c4.899-4.373,4.397-7.427,2.803-8.304
					C423.304,383.332,419.671,385.563,422.468,392.72z"/>
				<path style="fill-rule:evenodd;clip-rule:evenodd;fill:#663B55;" d="M429.184,377.71c0.379-6.655-2.521-7.839-4.007-6.739
					C423.735,372.039,423.631,375.266,429.184,377.71z"/>
				<path style="fill-rule:evenodd;clip-rule:evenodd;fill:#663B55;" d="M429.184,377.71c7.08-1.827,6.688-5.404,4.722-6.121
					C432.335,371.02,429.76,372.274,429.184,377.71z"/>
				<path style="fill-rule:evenodd;clip-rule:evenodd;fill:#875371;" d="M429.184,377.71c5.353-5.395,3.686-8.565,1.578-8.676
					C428.763,368.931,426.362,371.582,429.184,377.71z"/>
				<path style="fill-rule:evenodd;clip-rule:evenodd;fill:#663B55;" d="M431.843,361.411c-1.823-5.919-4.651-6.424-5.852-5.229
					C424.639,357.527,425.342,361.025,431.843,361.411z"/>
				<path style="fill-rule:evenodd;clip-rule:evenodd;fill:#663B55;" d="M431.843,361.411c4.866-3.386,4.729-6.141,3.387-7.055
					C433.594,353.239,430.17,354.859,431.843,361.411z"/>
				<path style="fill-rule:evenodd;clip-rule:evenodd;fill:#875371;" d="M431.843,361.411c2.852-6.276,0.92-8.828-0.967-8.778
					C428.711,352.693,426.601,356.182,431.843,361.411z"/>
			</g>
			<g>
				<path style="fill-rule:evenodd;clip-rule:evenodd;fill:#663B55;" d="M426.16,404.642c9.749-9.1,19.458-20.878,21.712-33.112
					c0.075-0.415-0.198-0.813-0.613-0.889c-0.416-0.077-0.813,0.198-0.89,0.613c-2.401,13.047-13.621,25.63-24.067,34.847
					C423.586,405.934,424.86,405.402,426.16,404.642z"/>
				<path style="fill-rule:evenodd;clip-rule:evenodd;fill:#663B55;" d="M429.789,399.961c2.736-6.668-0.238-8.539-1.999-7.494
					C426.337,393.333,425.708,396.181,429.789,399.961z"/>
				<path style="fill-rule:evenodd;clip-rule:evenodd;fill:#663B55;" d="M429.789,399.961c5.545,0.445,7.334-1.48,7.153-3.008
					C436.698,394.872,432.799,393.534,429.789,399.961z"/>
				<path style="fill-rule:evenodd;clip-rule:evenodd;fill:#875371;" d="M429.789,399.961c6.77-3.324,6.289-6.839,4.368-7.665
					C432.307,391.5,429.118,393.197,429.789,399.961z"/>
				<path style="fill-rule:evenodd;clip-rule:evenodd;fill:#663B55;" d="M440.189,387.227c2.059-6.196-0.286-8.145-2-7.592
					C436.454,380.199,435.363,383.336,440.189,387.227z"/>
				<path style="fill-rule:evenodd;clip-rule:evenodd;fill:#663B55;" d="M440.188,387.227c6.676,0.077,7.618-2.956,6.379-4.365
					C445.395,381.529,442.265,381.646,440.188,387.227z"/>
				<path style="fill-rule:evenodd;clip-rule:evenodd;fill:#875371;" d="M440.188,387.227c6.043-3.501,5.874-6.738,4.248-7.749
					C442.617,378.345,438.97,380.008,440.188,387.227z"/>
				<path style="fill-rule:evenodd;clip-rule:evenodd;fill:#663B55;" d="M447.012,372.186c-0.247-7.116-3.645-7.673-4.86-6.067
					C441.12,367.479,441.658,370.393,447.012,372.186z"/>
				<path style="fill-rule:evenodd;clip-rule:evenodd;fill:#663B55;" d="M447.01,372.186c8.141-2.914,5.653-7.314,2.944-6.493
					C448.541,366.122,447.07,367.968,447.01,372.186z"/>
				<path style="fill-rule:evenodd;clip-rule:evenodd;fill:#875371;" d="M447.01,372.186c4.859-5.883,2.876-8.891,0.756-8.782
					C445.771,363.508,443.659,366.368,447.01,372.186z"/>
			</g>
			<path style="fill-rule:evenodd;clip-rule:evenodd;fill:#30295E;" d="M389.244,370.34c0,0-5.384-4.825-5.274-10.158
				c0.112-5.332,2.798-6.955,2.835-8.338c0.033-1.385-2.704-3.69-6.539-3.064c-3.833,0.63-1.414,3.777-2.154,9.277
				c-0.738,5.503-2.146,10.242-5.901,13.097C368.456,374.009,389.244,370.34,389.244,370.34z"/>
			<path style="fill-rule:evenodd;clip-rule:evenodd;fill:#CA8874;" d="M381.871,372.994c-0.593-0.373-1.778-1.014-3.702-1.624
				c-27.685-8.791-43.577,13.237-40.113,34.085c3.158,19.032,19.203,31.908,43.815,25.463c24.612,6.445,40.658-6.431,43.817-25.463
				c3.461-20.848-12.43-42.876-40.116-34.085C383.65,371.98,382.464,372.621,381.871,372.994z"/>
			<path style="fill-rule:evenodd;clip-rule:evenodd;fill:#BA7369;" d="M362.935,432.006c5.542,1.014,11.887,0.757,18.936-1.089
				c24.612,6.445,40.658-6.431,43.817-25.463c1.023-6.169,0.352-12.442-1.817-17.99L362.935,432.006z"/>
			<path style="fill-rule:evenodd;clip-rule:evenodd;fill:#DBA376;" d="M381.871,371.116c0.469-0.397,1.406-1.08,2.922-1.732
				c21.859-9.38,34.403,14.125,31.672,36.372c-2.495,20.308-15.162,34.046-34.594,27.166c-19.431,6.88-32.099-6.858-34.593-27.166
				c-2.732-22.247,9.812-45.752,31.671-36.372C380.467,370.036,381.402,370.718,381.871,371.116z"/>
			<path style="fill-rule:evenodd;clip-rule:evenodd;fill:#CA8874;" d="M416.374,392.944c0.573,4.155,0.618,8.506,0.091,12.811
				c-2.495,20.308-15.162,34.046-34.594,27.166c-7.583,2.687-14.14,2.229-19.459-0.534L416.374,392.944z"/>
			<path style="fill-rule:evenodd;clip-rule:evenodd;fill:#ECBD78;" d="M369.587,430.369c-13.651-16.45-14.773-63.123,12.284-62.87
				c26.302-0.244,25.977,43.845,13.4,61.421C388.894,437.835,376.766,439.022,369.587,430.369z"/>
			<path style="fill-rule:evenodd;clip-rule:evenodd;fill:#DBA376;" d="M369.587,430.369c-0.537-0.648-1.057-1.35-1.555-2.09
				l35.419-25.89c-0.607,10.08-3.569,20.085-8.18,26.53C388.894,437.835,376.766,439.022,369.587,430.369z"/>
			<g>
				<g>
					<path style="fill-rule:evenodd;clip-rule:evenodd;fill:#6181A4;" d="M455.778,408.079c-3.984,1.737-13.087,3.371-17.989,4.165
						c-6.811,1.103-8.02-1.62-2.433-5.475c4.021-2.774,11.606-7.817,15.7-9.312C458.979,394.568,463.489,404.716,455.778,408.079z"
						/>
					<path style="fill-rule:evenodd;clip-rule:evenodd;fill:#789EAE;" d="M447.129,405.739c-3.531,2.537-12.085,6.049-16.71,7.856
						c-6.426,2.513-8.184,0.107-3.53-4.84c3.347-3.559,9.702-10.082,13.389-12.404C447.415,391.858,453.96,400.831,447.129,405.739z
						"/>
					<path style="fill-rule:evenodd;clip-rule:evenodd;fill:#A0CDBC;" d="M446.574,405.245c-4.288,0.729-12.798,4.344-17.334,6.361
						c-6.305,2.806-5.826,5.746,0.96,5.914c4.885,0.121,13.991,0.188,18.236-0.804C456.649,414.799,454.867,403.836,446.574,405.245
						z"/>
					<path style="fill-rule:evenodd;clip-rule:evenodd;fill:#D08174;" d="M411.515,402.963
						c-9.275,3.479-26.164,16.082-35.103,23.039c-12.425,9.666-9.271,17.215,6.337,15.175c11.232-1.47,32.067-4.62,41.063-8.776
						C441.208,424.366,429.458,396.238,411.515,402.963z"/>
				</g>
				<g>
					
						<path style="fill-rule:evenodd;clip-rule:evenodd;fill:none;stroke:#BE7775;stroke-width:1.4173;stroke-linecap:round;stroke-linejoin:round;stroke-miterlimit:2.6131;" d="
						M377.68,425.019c0,0,2.753,2.575,4.454,10.879"/>
					
						<path style="fill-rule:evenodd;clip-rule:evenodd;fill:none;stroke:#BE7775;stroke-width:1.4173;stroke-linecap:round;stroke-linejoin:round;stroke-miterlimit:2.6131;" d="
						M397.777,438.939c0,0-0.862-8.147-4.677-16.26"/>
					
						<path style="fill-rule:evenodd;clip-rule:evenodd;fill:none;stroke:#BE7775;stroke-width:1.4173;stroke-linecap:round;stroke-linejoin:round;stroke-miterlimit:2.6131;" d="
						M401.263,408.325c0,0,4.358,6.91,7.209,17.765"/>
					
						<path style="fill-rule:evenodd;clip-rule:evenodd;fill:none;stroke:#BE7775;stroke-width:1.4173;stroke-linecap:round;stroke-linejoin:round;stroke-miterlimit:2.6131;" d="
						M423.39,432.592c0,0-0.352-12.72-4.146-20.245"/>
				</g>
			</g>
		</g>
		<g>
			<path style="fill-rule:evenodd;clip-rule:evenodd;fill:#A0CDBC;" d="M246.976,470.554c18.169,0,32.985-14.815,32.985-32.985
				c0-18.166-14.816-32.984-32.985-32.984c-18.166,0-32.983,14.818-32.983,32.984C213.993,455.739,228.81,470.554,246.976,470.554z"
				/>
			<g>
				<path style="fill-rule:evenodd;clip-rule:evenodd;fill:#FFFFFF;" d="M241.425,433.479l4.999-8.436
					c0.086-0.277,0.189-0.874-0.215-1.507l-5.657-8.862l-0.001-0.002c-0.023-0.035-0.402-0.59-0.765,0.021l-7.814,13.184
					c-0.243,0.41-0.106,0.945,0.305,1.189l7.959,4.718C240.646,434.027,241.182,433.89,241.425,433.479z"/>
				<path style="fill-rule:evenodd;clip-rule:evenodd;fill:#FFFFFF;" d="M250.421,427.792l-9.245-14.484
					c-0.137-0.214-0.074-0.502,0.142-0.639l9.786-1.963c0.554-0.108,1.352-0.15,1.559,0.173l7.02,11
					c0.24,0.316,0.598,0.407,0.942,0.186c0.681-0.436,1.361-0.869,2.042-1.304c0.169-0.108,0.377-0.098,0.535,0.024
					c0.157,0.121,0.219,0.319,0.157,0.51l-3.06,9.387c-0.644,1.972-0.191,1.612-2.252,1.363l-9.706-1.165
					c-0.199-0.023-0.351-0.163-0.397-0.356c-0.045-0.194,0.035-0.388,0.203-0.495c0.682-0.434,1.362-0.869,2.043-1.305
					C250.537,428.503,250.606,428.144,250.421,427.792z"/>
				<path style="fill-rule:evenodd;clip-rule:evenodd;fill:#FFFFFF;" d="M256.293,436.196l4.42,8.752
					c0.189,0.223,0.636,0.63,1.388,0.63h10.514h0.002c0.042,0,0.713-0.022,0.391-0.656l-6.904-13.68
					c-0.215-0.427-0.742-0.598-1.169-0.384l-8.257,4.17C256.248,435.244,256.078,435.769,256.293,436.196z"/>
				<path style="fill-rule:evenodd;clip-rule:evenodd;fill:#FFFFFF;" d="M256.02,446.621h17.18c0.256,0,0.464,0.209,0.464,0.464
					l-3.611,9.302c-0.207,0.528-0.603,1.224-0.982,1.224h-13.05c-0.398,0.032-0.665,0.284-0.665,0.694c0,0.808,0,1.616,0,2.422
					c0,0.2-0.12,0.371-0.308,0.439c-0.186,0.067-0.388,0.011-0.514-0.143l-6.266-7.629c-1.316-1.603-1.256-1.03,0.062-2.634
					l6.204-7.553c0.126-0.153,0.327-0.211,0.514-0.143c0.188,0.068,0.308,0.238,0.308,0.439c0,0.808,0,1.614,0,2.423
					C255.354,446.336,255.622,446.586,256.02,446.621z"/>
				<path style="fill-rule:evenodd;clip-rule:evenodd;fill:#FFFFFF;" d="M245.362,446.644l-9.805-0.114
					c-0.285,0.065-0.851,0.273-1.198,0.942l-4.846,9.329l-0.001,0.003c-0.019,0.036-0.31,0.643,0.4,0.649l15.323,0.177
					c0.477,0.005,0.872-0.381,0.878-0.858l0.107-9.25C246.227,447.043,245.84,446.648,245.362,446.644z"/>
				<path style="fill-rule:evenodd;clip-rule:evenodd;fill:#FFFFFF;" d="M236.098,441.711l-7.92,15.247
					c-0.118,0.228-0.399,0.315-0.626,0.198l-6.59-7.494c-0.374-0.424-0.807-1.095-0.631-1.434l6.017-11.583
					c0.153-0.366,0.054-0.719-0.311-0.908c-0.717-0.372-1.434-0.745-2.151-1.117c-0.177-0.093-0.273-0.275-0.246-0.476
					c0.026-0.196,0.169-0.349,0.364-0.391l9.656-2.044c2.03-0.429,1.493-0.64,2.309,1.27l3.842,8.986
					c0.08,0.184,0.036,0.387-0.111,0.523c-0.146,0.136-0.353,0.164-0.53,0.072c-0.717-0.375-1.434-0.747-2.151-1.116
					C236.656,441.254,236.31,441.376,236.098,441.711z"/>
			</g>
		</g>
		<path style="fill-rule:evenodd;clip-rule:evenodd;fill:#789EAE;" d="M436.51,286.921c18.167,0,32.983-14.816,32.983-32.984
			c0-18.167-14.816-32.983-32.983-32.983c-18.167,0-32.985,14.816-32.985,32.983C403.524,272.105,418.343,286.921,436.51,286.921z"
			/>
		
			<path style="fill-rule:evenodd;clip-rule:evenodd;fill:none;stroke:#413B73;stroke-width:2.126;stroke-linecap:round;stroke-linejoin:round;stroke-miterlimit:2.6131;stroke-dasharray:2.126,6.378;" d="
			M282.908,58.345c30.142,5.604,57.853,18.125,81.424,35.857 M429.185,179.732c3.522,9.068,6.388,18.466,8.534,28.132
			 M436.689,297.428c-2.469,9.996-10.306,33.733-18.552,45.704 M324.77,429.743c-12.559,5.457-25.804,9.633-39.568,12.361
			 M208.529,442.061c-19.612-3.912-38.163-10.762-55.179-20.068 M63.869,318.797c-3.154-8.443-5.739-17.162-7.711-26.111
			 M57.017,204.48c2.495-10.352,5.814-20.38,9.885-30.014 M150.905,80.259c19.112-10.812,40.229-18.498,62.65-22.363"/>
		<g>
			<path style="fill-rule:evenodd;clip-rule:evenodd;fill:#A0CDBC;" d="M322.331,161.148c-0.068-1.172-0.093-2.308-0.072-3.411
				c0.02-1.12,0.085-2.198,0.19-3.237c0.4-3.886,1.393-7.229,2.842-10.078c1.566-3.083,3.669-5.583,6.136-7.563
				c2.287-1.835,4.884-3.219,7.659-4.202c2.98-1.055,6.163-1.648,9.386-1.84c1.088-0.065,2.184-0.083,3.281-0.059
				c1.111,0.027,2.221,0.097,3.318,0.21l0,0c0.125,0.012,0.233,0.074,0.307,0.165c0.074,0.089,0.113,0.207,0.1,0.332l-0.005,0.031
				c-0.05,0.428-1.166,9.606-5.76,17.85c-4.646,8.338-12.833,15.725-27.036,12.226c-0.1-0.024-0.184-0.082-0.247-0.157
				c-0.058-0.077-0.093-0.169-0.096-0.267H322.331z"/>
			<g>
				
					<path style="fill-rule:evenodd;clip-rule:evenodd;fill:none;stroke:#E4F0EC;stroke-width:1.4173;stroke-linecap:round;stroke-linejoin:round;stroke-miterlimit:2.6131;" d="
					M322.331,161.148c0,0,16.941-20.436,33.046-30.014"/>
				
					<path style="fill-rule:evenodd;clip-rule:evenodd;fill:none;stroke:#E4F0EC;stroke-width:1.4173;stroke-linecap:round;stroke-linejoin:round;stroke-miterlimit:2.6131;" d="
					M325.527,143.969c0,0,1.06,10.542,1.273,12.096l15.916,1.851"/>
				
					<path style="fill-rule:evenodd;clip-rule:evenodd;fill:none;stroke:#E4F0EC;stroke-width:1.4173;stroke-linecap:round;stroke-linejoin:round;stroke-miterlimit:2.6131;" d="
					M332.882,135.778c0.318,3.125,1.135,11.14,1.328,12.561l15.074,1.754"/>
				
					<path style="fill-rule:evenodd;clip-rule:evenodd;fill:none;stroke:#E4F0EC;stroke-width:1.4173;stroke-linecap:round;stroke-linejoin:round;stroke-miterlimit:2.6131;" d="
					M340.992,132.051c0.366,3.578,0.83,8.037,0.972,9.064l10.854,1.263"/>
				
					<path style="fill-rule:evenodd;clip-rule:evenodd;fill:none;stroke:#E4F0EC;stroke-width:1.4173;stroke-linecap:round;stroke-linejoin:round;stroke-miterlimit:2.6131;" d="
					M348.412,130.821c0.227,2.168,0.431,4.034,0.516,4.653l5.695,0.662"/>
			</g>
		</g>
		<g>
			<path style="fill-rule:evenodd;clip-rule:evenodd;fill:#A0CDBC;" d="M158.289,349.955c0.109-1.848,0.146-3.642,0.116-5.381
				c-0.031-1.763-0.134-3.466-0.303-5.104c-0.631-6.128-2.194-11.398-4.478-15.89c-2.471-4.86-5.785-8.803-9.676-11.925
				c-3.604-2.893-7.701-5.076-12.078-6.626c-4.696-1.664-9.714-2.598-14.796-2.9c-1.716-0.102-3.444-0.13-5.175-0.091
				c-1.752,0.038-3.5,0.15-5.235,0.329v-0.001c-0.196,0.02-0.365,0.117-0.482,0.26c-0.115,0.142-0.177,0.327-0.158,0.524l0.007,0.05
				c0.079,0.674,1.84,15.147,9.083,28.145c7.327,13.148,20.235,24.792,42.629,19.276c0.16-0.038,0.293-0.13,0.389-0.25
				C158.227,350.255,158.283,350.109,158.289,349.955L158.289,349.955z"/>
			<g>
				
					<path style="fill-rule:evenodd;clip-rule:evenodd;fill:none;stroke:#E4F0EC;stroke-width:1.4173;stroke-linecap:round;stroke-linejoin:round;stroke-miterlimit:2.6131;" d="
					M158.289,349.955c0,0-26.711-32.225-52.105-47.328"/>
				
					<path style="fill-rule:evenodd;clip-rule:evenodd;fill:none;stroke:#E4F0EC;stroke-width:1.4173;stroke-linecap:round;stroke-linejoin:round;stroke-miterlimit:2.6131;" d="
					M153.251,322.868c0,0-1.672,16.619-2.008,19.071l-25.097,2.919"/>
				
					<path style="fill-rule:evenodd;clip-rule:evenodd;fill:none;stroke:#E4F0EC;stroke-width:1.4173;stroke-linecap:round;stroke-linejoin:round;stroke-miterlimit:2.6131;" d="
					M141.652,309.952c-0.499,4.929-1.786,17.564-2.093,19.805l-23.77,2.765"/>
				
					<path style="fill-rule:evenodd;clip-rule:evenodd;fill:none;stroke:#E4F0EC;stroke-width:1.4173;stroke-linecap:round;stroke-linejoin:round;stroke-miterlimit:2.6131;" d="
					M128.866,304.077c-0.579,5.641-1.31,12.671-1.533,14.289l-17.115,1.991"/>
				
					<path style="fill-rule:evenodd;clip-rule:evenodd;fill:none;stroke:#E4F0EC;stroke-width:1.4173;stroke-linecap:round;stroke-linejoin:round;stroke-miterlimit:2.6131;" d="
					M117.166,302.136c-0.36,3.417-0.678,6.36-0.812,7.336l-8.982,1.044"/>
			</g>
		</g>
		<g>
			<path style="fill-rule:evenodd;clip-rule:evenodd;fill:#B5C7E6;" d="M246.976,76.971c12.659,0,22.985-10.324,22.985-22.983
				c0-12.66-10.326-22.986-22.985-22.986c-12.659,0-22.984,10.326-22.984,22.986C223.992,66.647,234.317,76.971,246.976,76.971z"/>
			<path style="fill-rule:evenodd;clip-rule:evenodd;fill:#FFFFFF;" d="M255.724,52.048c0.303,0.469,0.571,0.959,0.796,1.47
				c0.005,0.012,0.012,0.026,0.018,0.04c0.576,1.317,0.87,2.734,0.87,4.171c0,5.759-4.672,10.43-10.431,10.43
				c-5.76,0-10.428-4.67-10.428-10.43c0-1.437,0.296-2.85,0.867-4.168l0.003-0.008c0.227-0.523,0.499-1.026,0.812-1.504
				l7.801-14.377c0.193-0.355,0.54-0.563,0.945-0.563c0.405,0,0.752,0.208,0.945,0.563L255.724,52.048z"/>
		</g>
		<path style="fill-rule:evenodd;clip-rule:evenodd;fill:#413B73;" d="M425.971,235.971c0.122,0.212,0.392,0.285,0.605,0.163
			c0.211-0.12,0.284-0.392,0.162-0.604l-0.857-1.486c-0.122-0.212-0.393-0.286-0.605-0.164c-0.21,0.123-0.283,0.392-0.161,0.605
			L425.971,235.971L425.971,235.971z M436.065,233.029c0,0.247,0.199,0.444,0.444,0.444c0.245,0,0.445-0.198,0.445-0.444v-1.715
			c0-0.245-0.2-0.445-0.445-0.445c-0.245,0-0.444,0.201-0.444,0.445V233.029L436.065,233.029z M446.28,235.53
			c-0.121,0.211-0.049,0.484,0.165,0.604c0.21,0.122,0.481,0.049,0.603-0.163l0.856-1.485c0.121-0.213,0.049-0.482-0.163-0.605
			c-0.213-0.122-0.481-0.048-0.603,0.164L446.28,235.53L446.28,235.53z M453.878,242.8c-0.213,0.121-0.285,0.392-0.164,0.605
			c0.122,0.211,0.393,0.285,0.604,0.163l1.486-0.858c0.212-0.121,0.285-0.392,0.163-0.604c-0.12-0.212-0.392-0.285-0.604-0.163
			L453.878,242.8L453.878,242.8z M454.989,252.893c-0.247,0-0.446,0.2-0.446,0.445c0,0.246,0.199,0.444,0.446,0.444h1.714
			c0.245,0,0.444-0.198,0.444-0.444c0-0.245-0.199-0.445-0.444-0.445H454.989L454.989,252.893z M451.073,262.294
			c-0.211-0.121-0.481-0.049-0.603,0.164c-0.12,0.211-0.048,0.482,0.163,0.604l1.484,0.857c0.214,0.12,0.485,0.049,0.605-0.162
			c0.121-0.214,0.049-0.484-0.162-0.607L451.073,262.294L451.073,262.294z M422.385,263.063c0.213-0.122,0.286-0.393,0.164-0.604
			c-0.121-0.213-0.392-0.285-0.604-0.164l-1.484,0.856c-0.214,0.123-0.287,0.394-0.165,0.607c0.124,0.211,0.395,0.282,0.604,0.162
			L422.385,263.063L422.385,263.063z M418.03,253.783c0.245,0,0.445-0.198,0.445-0.444c0-0.245-0.2-0.445-0.445-0.445h-1.714
			c-0.246,0-0.445,0.2-0.445,0.445c0,0.246,0.199,0.444,0.445,0.444H418.03L418.03,253.783z M418.7,243.567
			c0.213,0.122,0.483,0.049,0.605-0.163c0.12-0.212,0.049-0.484-0.164-0.605l-1.484-0.858c-0.213-0.122-0.483-0.049-0.607,0.163
			c-0.121,0.212-0.048,0.483,0.164,0.604L418.7,243.567z"/>
		<path style="fill-rule:evenodd;clip-rule:evenodd;fill:#30295E;" d="M434.998,268.89h3.025c0.946,0,1.721,0.776,1.721,1.725v4.406
			c0,0.949-0.774,1.724-1.721,1.724h-3.025c-0.947,0-1.724-0.774-1.724-1.724v-4.406C433.274,269.667,434.051,268.89,434.998,268.89
			z"/>
		<path style="fill-rule:evenodd;clip-rule:evenodd;fill:#12131F;" d="M439.21,271.849h-5.398v-4.412
			c0-0.606,0.497-1.103,1.102-1.103h3.193c0.607,0,1.104,0.496,1.104,1.103V271.849z"/>
		<path style="fill-rule:evenodd;clip-rule:evenodd;fill:#FFFFFF;" d="M436.51,234.75c-4.295,0-8.184,1.742-10.997,4.556
			c-2.814,2.813-4.555,6.703-4.555,10.999c-0.002,2.678,0.677,5.201,1.87,7.4c1.224,2.259,2.996,4.183,5.138,5.594l0.059,0.043
			c1.003,0.647,1.659,1.339,2.09,1.983c0.661,0.986,0.783,1.838,0.802,2.195c-0.009,0.513-0.002,1.033-0.002,1.547
			c0,0.784,0.326,1.499,0.846,2.02c0.516,0.518,1.232,0.837,2.016,0.837h5.469c0.785,0,1.501-0.319,2.018-0.837
			c0.52-0.521,0.843-1.235,0.843-2.02v-1.519c0.012-0.337,0.121-1.208,0.801-2.224c0.43-0.645,1.088-1.337,2.089-1.983l0.04-0.028
			c2.135-1.405,3.906-3.316,5.136-5.569l0.022-0.039c1.193-2.199,1.871-4.723,1.871-7.4h-0.003c0-4.296-1.738-8.187-4.552-10.999
			C444.695,236.492,440.806,234.75,436.51,234.75z"/>
		<path style="fill-rule:evenodd;clip-rule:evenodd;fill:#413B73;" d="M433.201,271.113h6.62c0.494,0,0.9,0.406,0.9,0.902l0,0
			c0,0.495-0.406,0.901-0.9,0.901h-6.62c-0.496,0-0.902-0.406-0.902-0.901l0,0C432.299,271.519,432.705,271.113,433.201,271.113z"/>
		<path style="fill-rule:evenodd;clip-rule:evenodd;fill:#413B73;" d="M433.051,273.586h6.92c0.302,0,0.55,0.248,0.55,0.55l0,0
			c0,0.303-0.248,0.553-0.55,0.553h-6.92c-0.303,0-0.553-0.25-0.553-0.553l0,0C432.498,273.833,432.748,273.586,433.051,273.586z"/>
		<g>
			<path style="fill-rule:evenodd;clip-rule:evenodd;fill:#A0CDBC;" d="M433.291,262.085c-0.033-0.558-0.043-1.097-0.035-1.62
				c0.009-0.532,0.041-1.043,0.091-1.535c0.191-1.847,0.661-3.433,1.35-4.787c0.743-1.462,1.742-2.65,2.914-3.59
				c1.084-0.871,2.318-1.53,3.636-1.995c1.413-0.502,2.927-0.783,4.456-0.875c0.517-0.029,1.037-0.039,1.56-0.026
				c0.526,0.012,1.054,0.045,1.574,0.099l0,0c0.06,0.006,0.111,0.035,0.145,0.079c0.037,0.042,0.055,0.099,0.048,0.157l-0.001,0.015
				c-0.024,0.204-0.556,4.562-2.734,8.476c-2.206,3.96-6.095,7.466-12.838,5.806c-0.048-0.014-0.09-0.039-0.118-0.075
				C433.31,262.175,433.293,262.131,433.291,262.085L433.291,262.085z"/>
			<path style="fill-rule:evenodd;clip-rule:evenodd;fill:#A0CDBC;" d="M436.575,250.257c-0.364-0.389-0.752-0.749-1.162-1.078
				c-1.084-0.871-2.318-1.527-3.635-1.996c-1.415-0.501-2.928-0.781-4.457-0.874c-0.517-0.03-1.036-0.039-1.559-0.026
				c-0.526,0.012-1.055,0.045-1.577,0.099l0,0c-0.058,0.006-0.109,0.036-0.144,0.079c-0.035,0.043-0.055,0.099-0.048,0.158
				l0.003,0.016c0.023,0.203,0.553,4.562,2.733,8.477c1.244,2.231,3.027,4.319,5.55,5.419c0-0.136,0.001-0.273,0.005-0.408
				c0.009-0.53,0.039-1.044,0.091-1.537c0.19-1.846,0.659-3.434,1.348-4.786C434.454,252.363,435.431,251.19,436.575,250.257z"/>
		</g>
		<g>
			<path style="fill-rule:evenodd;clip-rule:evenodd;fill:#A0CDBC;" d="M60.424,286.921c18.167,0,32.984-14.816,32.984-32.984
				c0-18.167-14.817-32.983-32.984-32.983c-18.167,0-32.985,14.816-32.985,32.983C27.439,272.105,42.256,286.921,60.424,286.921z"/>
			<g>
				<path style="fill-rule:evenodd;clip-rule:evenodd;fill:#FFFFFF;" d="M50.665,238.523h19.518c1.845,0,3.354,1.509,3.354,3.354
					v24.121c0,1.847-1.509,3.355-3.354,3.355H50.665c-1.845,0-3.354-1.509-3.354-3.355v-24.121
					C47.31,240.032,48.819,238.523,50.665,238.523z"/>
				<path style="fill-rule:evenodd;clip-rule:evenodd;fill:#30295E;" d="M49.409,238.523h22.028c0.829,0,1.506-0.678,1.506-1.508
					l0,0c0-0.828-0.677-1.505-1.506-1.505H49.409c-0.828,0-1.507,0.677-1.507,1.505l0,0
					C47.902,237.845,48.581,238.523,49.409,238.523z"/>
				<path style="fill-rule:evenodd;clip-rule:evenodd;fill:#FFFFFF;" d="M50.694,229.929h19.459c1.535,0,2.79,1.256,2.79,2.79v0.001
					c0,1.535-1.256,2.79-2.79,2.79H50.694c-1.535,0-2.792-1.256-2.792-2.79v-0.001C47.902,231.185,49.159,229.929,50.694,229.929z"
					/>
				<path style="fill-rule:evenodd;clip-rule:evenodd;fill:#30295E;" d="M49.409,269.353h22.028c0.829,0,1.506,0.677,1.506,1.506
					l0,0c0,0.828-0.677,1.507-1.506,1.507H49.409c-0.828,0-1.507-0.679-1.507-1.507l0,0
					C47.902,270.03,48.581,269.353,49.409,269.353z"/>
				<path style="fill-rule:evenodd;clip-rule:evenodd;fill:#FFFFFF;" d="M50.694,277.948h19.459c1.535,0,2.79-1.257,2.79-2.791l0,0
					c0-1.535-1.256-2.791-2.79-2.791H50.694c-1.535,0-2.792,1.256-2.792,2.791l0,0C47.902,276.691,49.159,277.948,50.694,277.948z"
					/>
			</g>
			<path style="fill-rule:evenodd;clip-rule:evenodd;fill:#ECBD78;" d="M60.424,263.265c5.137,0,9.327-4.191,9.327-9.328
				c0-5.136-4.189-9.326-9.327-9.326s-9.327,4.19-9.327,9.326C51.097,259.074,55.287,263.265,60.424,263.265z"/>
			<path style="fill-rule:evenodd;clip-rule:evenodd;fill:#875371;" d="M55.299,255.087c0.459,0,0.833-0.375,0.833-0.834
				c0-0.459-0.374-0.834-0.833-0.834c-0.46,0-0.834,0.375-0.834,0.834C54.465,254.712,54.84,255.087,55.299,255.087z"/>
			<path style="fill-rule:evenodd;clip-rule:evenodd;fill:#875371;" d="M58.216,259.097c0.459,0,0.833-0.374,0.833-0.834
				c0-0.459-0.374-0.833-0.833-0.833c-0.46,0-0.835,0.374-0.835,0.833C57.382,258.723,57.757,259.097,58.216,259.097z"/>
			<path style="fill-rule:evenodd;clip-rule:evenodd;fill:#875371;" d="M61.914,252.587c0.459,0,0.833-0.374,0.833-0.834
				c0-0.458-0.374-0.833-0.833-0.833c-0.459,0-0.833,0.375-0.833,0.833C61.081,252.212,61.455,252.587,61.914,252.587z"/>
			<path style="fill-rule:evenodd;clip-rule:evenodd;fill:#875371;" d="M66.289,253.733c0.459,0,0.833-0.375,0.833-0.834
				c0-0.458-0.374-0.834-0.833-0.834c-0.459,0-0.834,0.376-0.834,0.834C65.456,253.358,65.83,253.733,66.289,253.733z"/>
			<path style="fill-rule:evenodd;clip-rule:evenodd;fill:#875371;" d="M64.415,259.253c0.458,0,0.833-0.373,0.833-0.833
				c0-0.459-0.375-0.832-0.833-0.832c-0.459,0-0.834,0.373-0.834,0.832C63.581,258.88,63.955,259.253,64.415,259.253z"/>
			<path style="fill-rule:evenodd;clip-rule:evenodd;fill:#875371;" d="M57.277,252.326c0.459,0,0.834-0.374,0.834-0.833
				c0-0.459-0.375-0.834-0.834-0.834c-0.459,0-0.834,0.375-0.834,0.834C56.444,251.952,56.819,252.326,57.277,252.326z"/>
			<path style="fill-rule:evenodd;clip-rule:evenodd;fill:#875371;" d="M61.028,257.378c0.459,0,0.834-0.374,0.834-0.833
				c0-0.459-0.375-0.834-0.834-0.834c-0.459,0-0.834,0.375-0.834,0.834C60.194,257.004,60.568,257.378,61.028,257.378z"/>
			<path style="fill-rule:evenodd;clip-rule:evenodd;fill:#875371;" d="M63.112,249.982c0.459,0,0.834-0.375,0.834-0.833
				c0-0.459-0.375-0.835-0.834-0.835c-0.458,0-0.833,0.376-0.833,0.835C62.279,249.607,62.653,249.982,63.112,249.982z"/>
			<path style="fill-rule:evenodd;clip-rule:evenodd;fill:#875371;" d="M59.622,248.055c0.458,0,0.833-0.374,0.833-0.833
				c0-0.458-0.375-0.833-0.833-0.833c-0.459,0-0.834,0.375-0.834,0.833C58.788,247.681,59.163,248.055,59.622,248.055z"/>
			<path style="fill-rule:evenodd;clip-rule:evenodd;fill:#875371;" d="M59.153,255.087c0.46,0,0.834-0.375,0.834-0.834
				c0-0.459-0.374-0.834-0.834-0.834c-0.458,0-0.833,0.375-0.833,0.834C58.32,254.712,58.694,255.087,59.153,255.087z"/>
			<path style="fill-rule:evenodd;clip-rule:evenodd;fill:#875371;" d="M54.257,250.972c0.459,0,0.834-0.376,0.834-0.833
				c0-0.459-0.375-0.833-0.834-0.833c-0.458,0-0.834,0.374-0.834,0.833C53.422,250.597,53.798,250.972,54.257,250.972z"/>
			<path style="fill-rule:evenodd;clip-rule:evenodd;fill:#875371;" d="M54.362,259.097c0.459,0,0.833-0.374,0.833-0.834
				c0-0.459-0.374-0.833-0.833-0.833c-0.459,0-0.834,0.374-0.834,0.833C53.527,258.723,53.902,259.097,54.362,259.097z"/>
			<path style="fill-rule:evenodd;clip-rule:evenodd;fill:#875371;" d="M60.196,262.171c0.458,0,0.833-0.375,0.833-0.834
				c0-0.459-0.375-0.834-0.833-0.834c-0.46,0-0.834,0.375-0.834,0.834C59.362,261.796,59.736,262.171,60.196,262.171z"/>
			<path style="fill-rule:evenodd;clip-rule:evenodd;fill:#875371;" d="M63.633,255.503c0.459,0,0.833-0.374,0.833-0.833
				c0-0.46-0.374-0.834-0.833-0.834c-0.459,0-0.833,0.374-0.833,0.834C62.799,255.129,63.174,255.503,63.633,255.503z"/>
			<path style="fill-rule:evenodd;clip-rule:evenodd;fill:#875371;" d="M67.8,257.065c0.459,0,0.834-0.373,0.834-0.833
				c0-0.459-0.375-0.834-0.834-0.834c-0.459,0-0.833,0.375-0.833,0.834C66.967,256.692,67.341,257.065,67.8,257.065z"/>
			<path style="fill-rule:evenodd;clip-rule:evenodd;fill:#875371;" d="M66.602,250.243c0.459,0,0.833-0.374,0.833-0.834
				c0-0.459-0.374-0.833-0.833-0.833s-0.833,0.374-0.833,0.833C65.769,249.869,66.143,250.243,66.602,250.243z"/>
		</g>
	</g>
</g>
</svg>
